<svg width="32" height="32" viewBox="0 0 32 32" fill="none" xmlns="http://www.w3.org/2000/svg">
<path d="M0 16H16.0015C16.0015 11.6546 14.5576 7.67677 11.5921 4.7336C8.62436 1.7915 4.52643 0 0 0V16Z" fill="#EF3F61"/>
<path d="M16 0H32.0015C32.0015 4.34537 30.5576 8.3232 27.5921 11.2664C24.6244 14.2085 20.5264 16 16 16V0Z" fill="#0068FF"/>
<path d="M16.0015 16H0C0 20.3454 1.44391 24.3232 4.40943 27.2664C7.37713 30.2085 11.4751 32 16.0015 32V16Z" fill="#FEC149"/>
<path d="M32.0015 16H16C16 20.3454 17.4439 24.3232 20.4094 27.2664C23.3772 30.2085 27.4751 32 32.0015 32V16Z" fill="#4ED687"/>
</svg>
