<svg width="127" height="32" viewBox="0 0 127 32" fill="none" xmlns="http://www.w3.org/2000/svg">
<path fill-rule="evenodd" clip-rule="evenodd" d="M88.7999 18.7666L94.4943 24.3125H89.6484L85.2923 20.0713V24.3125H81.5334V6.52002H85.2923V17.4024L89.0973 13.6991H93.9861L88.7999 18.7666ZM66.1897 11.4856C67.4229 11.4856 68.421 10.515 68.421 9.31346C68.421 8.11407 67.4229 7.1413 66.1897 7.1413C64.9577 7.1413 63.9585 8.11407 63.9585 9.31346C63.9585 10.515 64.9577 11.4856 66.1897 11.4856ZM68.0166 24.3135H64.2558V13.7H68.0166V24.3135ZM57.7749 24.3135L51.3138 17.0705V24.3135H47.3203V7.24435H51.3138V14.2162L57.3304 7.24435H62.175L55.1181 15.3332L63.2789 24.3124H57.7749V24.3135ZM76.689 21.6231C75.2641 21.6231 74.0933 20.4639 74.0933 18.9944C74.0933 17.5467 75.2641 16.3885 76.689 16.3896C77.8142 16.3896 78.5156 16.8852 78.5156 16.8852L79.7903 14.3845C79.7903 14.3845 78.5593 13.3911 76.1352 13.3911C72.9671 13.3911 70.0997 15.9146 70.0997 19.0389C70.0997 22.1415 72.9905 24.6259 76.1352 24.6259C78.5593 24.6259 79.7903 23.6706 79.7903 23.6706L78.5156 21.1276C78.5156 21.1276 77.8142 21.6231 76.689 21.6231ZM102.634 16.616L103.867 14.2162C103.867 14.2162 102.314 13.3898 100.211 13.3898C97.3427 13.3898 95.4502 14.6304 95.4502 16.8015C95.4502 18.3945 96.554 19.1395 97.6646 19.698C98.0655 19.9012 98.4618 20.0447 98.8144 20.1723C99.5434 20.4364 100.085 20.6321 100.085 21.1468C100.085 21.8507 99.4468 21.9125 98.9179 21.9125C97.706 21.9125 96.2175 20.6924 96.2175 20.6924L94.686 23.1943C94.686 23.1943 96.2604 24.6258 98.8934 24.6258C101.125 24.6258 104.059 24.1258 104.059 21.0026C104.059 18.8326 102.189 18.0443 100.743 17.6094C100.643 17.5784 100.545 17.5489 100.45 17.5201C99.6538 17.2792 99.0428 17.0944 99.0428 16.5954C99.0428 16.0988 99.3816 15.9535 100.211 15.9535C101.358 15.9535 102.634 16.616 102.634 16.616ZM106.588 9.74843H110.346V13.7001H112.641V16.4936H110.346V19.8663C110.346 20.8575 110.601 21.3346 111.196 21.3346C111.689 21.3346 112.132 21.0028 112.132 21.0028L113.069 23.9622C113.069 23.9622 111.854 24.6259 110.305 24.6259C107.31 24.6259 106.588 22.4495 106.588 20.5701V16.4936H105.017V13.7001H106.588V9.74843ZM119.144 13.3898C120.61 13.3898 121.822 13.8648 122.717 14.7128V13.7H126.476V24.3134H122.756V23.1108H122.717C121.908 23.9826 120.632 24.6246 119.144 24.6246C115.958 24.6246 113.727 22.1185 113.727 19.0159C113.727 15.9133 115.958 13.3898 119.144 13.3898ZM120.274 21.5004C121.739 21.5004 122.8 20.4647 122.8 19.017C122.8 17.5464 121.672 16.513 120.274 16.513C118.849 16.513 117.72 17.5464 117.72 19.017C117.72 20.4647 118.738 21.5004 120.274 21.5004Z" fill="#2A363D"/>
<path d="M0 16H16.0968C16.0968 11.6546 14.6442 7.67677 11.6611 4.7336C8.67571 1.7915 4.55338 0 0 0V16Z" fill="#EF3F61"/>
<path d="M16.0938 0H32.1905C32.1905 4.34537 30.738 8.3232 27.7549 11.2664C24.7695 14.2085 20.6471 16 16.0938 16V0Z" fill="#0068FF"/>
<path d="M16.0968 16H0C0 20.3454 1.45251 24.3232 4.43569 27.2664C7.42106 30.2085 11.5434 32 16.0968 32V16Z" fill="#FEC149"/>
<path d="M32.1905 16H16.0938C16.0938 20.3454 17.5463 24.3232 20.5294 27.2664C23.5148 30.2085 27.6371 32 32.1905 32V16Z" fill="#4ED687"/>
</svg>
